<svg class="w-8 h-8 md_w-14 md_h-14" viewBox="0 0 100 100" fill="none" xmlns="http://www.w3.org/2000/svg"><path d="M0 39.92C0 7.04588 7.04588 0 39.92 0H60.08C92.9541 0 100 7.04588 100 39.92V60.08C100 92.9541 92.9541 100 60.08 100H39.92C7.04588 100 0 92.9541 0 60.08V39.92Z" fill="currentColor"/><path fill-rule="evenodd" clip-rule="evenodd" d="M40.0922 62.051L29.2967 51.1071C28.0833 49.8771 26.1233 49.8771 24.91 51.1071C23.6967 52.3371 23.6967 54.324 24.91 55.554L37.9144 68.7371C39.1278 69.9671 41.0878 69.9671 42.3011 68.7371L75.2167 35.3694C76.43 34.1394 76.43 32.1525 75.2167 30.9225C74.0033 29.6925 72.0433 29.6925 70.83 30.9225L40.0922 62.051V62.051Z" fill="white"/></svg>