<svg class="min-w-50px min-h-50px" width="50" height="50" viewBox="0 0 50 50" fill="none" xmlns="http://www.w3.org/2000/svg"><path d="M0 16.6C0 2.9299 2.9299 0 16.6 0H33.4C47.0701 0 50 2.9299 50 16.6V33.4C50 47.0701 47.0701 50 33.4 50H16.6C2.9299 50 0 47.0701 0 33.4V16.6Z" fill="#C026D3"/><g clip-path="url(#clip0_3_270)"><path d="M36.6667 11H13.3333C12.7145 11 12.121 11.2458 11.6834 11.6834C11.2458 12.121 11 12.7145 11 13.3333V27.3333C11 27.9522 11.2458 28.5457 11.6834 28.9832C12.121 29.4208 12.7145 29.6667 13.3333 29.6667H17.4167C17.7261 29.6667 18.0228 29.5438 18.2416 29.325C18.4604 29.1062 18.5833 28.8094 18.5833 28.5C18.5833 28.1906 18.4604 27.8938 18.2416 27.675C18.0228 27.4563 17.7261 27.3333 17.4167 27.3333H13.9167C13.762 27.3333 13.6136 27.2719 13.5042 27.1625C13.3948 27.0531 13.3333 26.9047 13.3333 26.75V13.9167C13.3333 13.762 13.3948 13.6136 13.5042 13.5042C13.6136 13.3948 13.762 13.3333 13.9167 13.3333H36.0833C36.238 13.3333 36.3864 13.3948 36.4958 13.5042C36.6052 13.6136 36.6667 13.762 36.6667 13.9167V26.75C36.6667 26.9047 36.6052 27.0531 36.4958 27.1625C36.3864 27.2719 36.238 27.3333 36.0833 27.3333H32.5833C32.2739 27.3333 31.9772 27.4563 31.7584 27.675C31.5396 27.8938 31.4167 28.1906 31.4167 28.5C31.4167 28.8094 31.5396 29.1062 31.7584 29.325C31.9772 29.5438 32.2739 29.6667 32.5833 29.6667H36.6667C37.2855 29.6667 37.879 29.4208 38.3166 28.9832C38.7542 28.5457 39 27.9522 39 27.3333V13.3333C39 12.7145 38.7542 12.121 38.3166 11.6834C37.879 11.2458 37.2855 11 36.6667 11V11Z" fill="white"/><path d="M25.0036 25C27.0977 25 28.7952 23.3024 28.7952 21.2083C28.7952 19.1143 27.0977 17.4167 25.0036 17.4167C22.9095 17.4167 21.2119 19.1143 21.2119 21.2083C21.2119 23.3024 22.9095 25 25.0036 25Z" fill="white"/><path d="M29.3972 28.8372C29.4519 28.7652 29.4892 28.6814 29.506 28.5925C29.5228 28.5036 29.5187 28.412 29.494 28.325C29.2087 27.3573 28.6155 26.5091 27.8045 25.909C26.9935 25.3089 26.0088 24.9898 25 25C23.9947 25.0042 23.0173 25.331 22.2117 25.9323C21.406 26.5336 20.8147 27.3776 20.5247 28.3402C20.4992 28.4269 20.4942 28.5184 20.5101 28.6073C20.526 28.6963 20.5624 28.7804 20.6163 28.8529C20.6703 28.9254 20.7404 28.9844 20.821 29.0252C20.9017 29.066 20.9908 29.0875 21.0812 29.088L28.9247 29.0693C29.0161 29.0704 29.1065 29.0499 29.1886 29.0096C29.2707 28.9693 29.3421 28.9102 29.3972 28.8372Z" fill="white"/><path d="M31.9999 30.8333H17.9999C17.6905 30.8333 17.3938 30.9562 17.175 31.175C16.9562 31.3938 16.8333 31.6906 16.8333 32C16.8333 32.3094 16.9562 32.6062 17.175 32.825C17.3938 33.0438 17.6905 33.1667 17.9999 33.1667H18.7968L19.7733 38.0667C19.827 38.3302 19.9702 38.567 20.1786 38.7371C20.3869 38.9072 20.6476 39.0001 20.9166 39H29.0833C29.3522 39.0001 29.6129 38.9072 29.8213 38.7371C30.0296 38.567 30.1728 38.3302 30.2266 38.0667L31.2101 33.1667H31.9999C32.3093 33.1667 32.6061 33.0438 32.8249 32.825C33.0437 32.6062 33.1666 32.3094 33.1666 32C33.1666 31.6906 33.0437 31.3938 32.8249 31.175C32.6061 30.9562 32.3093 30.8333 31.9999 30.8333ZM23.5451 35.2083C23.5451 34.9198 23.6307 34.6377 23.7911 34.3978C23.9515 34.1579 24.1795 33.971 24.4462 33.8607C24.7128 33.7504 25.0062 33.7217 25.2892 33.7783C25.5722 33.8348 25.832 33.9741 26.0359 34.1784C26.2397 34.3827 26.3783 34.6429 26.4342 34.926C26.49 35.2091 26.4607 35.5024 26.3497 35.7688C26.2388 36.0353 26.0514 36.2628 25.8111 36.4226C25.5708 36.5824 25.2885 36.6674 24.9999 36.6667C24.6138 36.6654 24.244 36.5113 23.9713 36.238C23.6987 35.9646 23.5454 35.5944 23.5451 35.2083Z" fill="white"/></g><defs><clipPath id="clip0_3_270"><rect width="28" height="28" fill="white" transform="translate(11 11)"/></clipPath></defs></svg>