<svg fill="none" height="218" viewBox="0 0 1221 218" width="1221" xmlns="http://www.w3.org/2000/svg" xmlns:xlink="http://www.w3.org/1999/xlink"><linearGradient id="a"><stop offset="0" stop-color="#f2f2f2"/><stop offset="1" stop-color="#f9f9f9" stop-opacity="0"/></linearGradient><linearGradient id="b" gradientUnits="userSpaceOnUse" x1="949" x2="681" xlink:href="#a" y1="333" y2="35"/><linearGradient id="c" gradientUnits="userSpaceOnUse" x1="790" x2="522" xlink:href="#a" y1="644" y2="346"/><linearGradient id="d" gradientUnits="userSpaceOnUse" x1="1062.41" x2="812.943" xlink:href="#a" y1="398.26" y2="459.907"/><linearGradient id="e" gradientUnits="userSpaceOnUse" x1="773.221" x2="505.221" xlink:href="#a" y1="244.221" y2="-53.7787"/><linearGradient id="f" gradientUnits="userSpaceOnUse" x1="460.221" x2="192.221" xlink:href="#a" y1="166.221" y2="-131.779"/><linearGradient id="g" gradientUnits="userSpaceOnUse" x1="879.903" x2="683.231" xlink:href="#a" y1="439.151" y2="220.464"/><mask id="h" height="218" maskUnits="userSpaceOnUse" width="1221" x="0" y="0"><rect fill="#f7f7f7" height="218" rx="20" width="1221"/></mask><g mask="url(#h)"><rect fill="#fff" height="218" rx="20" width="1221"/><path d="m1404-20.5c0 245.491-199.01 444.5-444.5 444.5-245.491 0-444.5-199.009-444.5-444.5s199.009-444.5 444.5-444.5c245.49 0 444.5 199.009 444.5 444.5z" fill="url(#b)" fill-opacity=".3"/><path d="m1245 290.5c0 245.491-199.01 444.5-444.5 444.5-245.491 0-444.5-199.009-444.5-444.5 0-245.4906 199.009-444.5 444.5-444.5 245.49 0 444.5 199.0094 444.5 444.5z" fill="url(#c)" fill-opacity=".3"/><path d="m999.789 34.1744c138.871 74.1026 191.371 246.7476 117.271 385.6146-74.11 138.867-246.753 191.369-385.62 117.266-138.866-74.102-191.368-246.748-117.266-385.615 74.103-138.8663 246.748-191.3681 385.615-117.2656z" fill="url(#d)" fill-opacity=".5"/><circle cx="538.721" cy="-83.2787" fill="url(#e)" fill-opacity=".7" r="444.5" transform="matrix(-.34202014 .93969262 -.93969262 -.34202014 644.718054 -617.993841)"/><circle cx="225.721" cy="-161.279" fill="url(#f)" fill-opacity=".7" r="444.5" transform="matrix(-.34202014 .93969262 -.93969262 -.34202014 151.369443 -428.548025)"/><circle cx="707.815" cy="198.815" fill="url(#g)" fill-opacity=".3" r="326.196" transform="matrix(-.79868803 .60174533 -.60174533 -.79868803 1392.774362 -68.318209)"/></g></svg>