<svg xmlns="http://www.w3.org/2000/svg" viewBox="0 0 60 60" width="40" height="40" class="inline-block"><path fill="#1877F2" d="M50,25.1527836 C50,11.2612745 38.807129,0 25,0 C11.1928711,0 0,11.2612745 0,25.1527836 C0,37.7072648 9.14213867,48.11305 21.09375,50 L21.09375,32.42351 L14.7460938,32.42351 L14.7460938,25.1527836 L21.09375,25.1527836 L21.09375,19.6113109 C21.09375,13.3073945 24.8260743,9.82530607 30.536621,9.82530607 C33.2718261,9.82530607 36.1328124,10.3165714 36.1328124,10.3165714 L36.1328124,16.5065142 L32.980371,16.5065142 C29.8747559,16.5065142 28.90625,18.4453909 28.90625,20.4345242 L28.90625,25.1527836 L35.8398437,25.1527836 L34.7314453,32.42351 L28.90625,32.42351 L28.90625,50 C40.8578614,48.11305 50,37.7072648 50,25.1527836" transform="translate(5 5)"/></svg>