<svg class="min-w-50px min-h-50px" width="50" height="50" viewBox="0 0 50 50" fill="none" xmlns="http://www.w3.org/2000/svg"><path d="M0 16.6C0 2.9299 2.9299 0 16.6 0H33.4C47.0701 0 50 2.9299 50 16.6V33.4C50 47.0701 47.0701 50 33.4 50H16.6C2.9299 50 0 47.0701 0 33.4V16.6Z" fill="#4267B2"/><path d="M40 25.0913C40 16.7546 33.2863 10 25 10C16.7137 10 10 16.7546 10 25.0913C10 32.6235 15.4853 38.8669 22.6562 40V29.4538H18.8458V25.0913H22.6562V21.7663C22.6562 17.9844 24.8942 15.8953 28.3218 15.8953C29.9633 15.8953 31.6798 16.1899 31.6798 16.1899V19.9018H29.7879C27.925 19.9018 27.3437 21.0653 27.3437 22.2586V25.0913H31.5038L30.8385 29.4538H27.3437V40C34.5147 38.8669 40 32.6235 40 25.0913Z" fill="white"/></svg>