<svg class="min-w-50px min-h-50px" width="50" height="50" viewBox="0 0 50 50" fill="none" xmlns="http://www.w3.org/2000/svg"><path d="M0 16.6C0 2.9299 2.9299 0 16.6 0H33.4C47.0701 0 50 2.9299 50 16.6V33.4C50 47.0701 47.0701 50 33.4 50H16.6C2.9299 50 0 47.0701 0 33.4V16.6Z" fill="#6D28D9"/><path d="M12.3312 11.9062C12.1192 12.118 12.0001 12.4053 12 12.7049V25.1485C12 25.4481 12.1191 25.7355 12.3311 25.9473C12.5431 26.1592 12.8306 26.2782 13.1304 26.2782H22.1739C22.4737 26.2782 22.7612 26.1592 22.9732 25.9473C23.1852 25.7355 23.3043 25.4481 23.3043 25.1485V12.7218C23.3043 12.4222 23.1852 12.1349 22.9732 11.923C22.7612 11.7111 22.4737 11.5921 22.1739 11.5921L13.1304 11.5752C12.8306 11.5752 12.5432 11.6943 12.3312 11.9062V11.9062Z" fill="white"/><path d="M36.8696 11.5752L27.8261 11.591C27.5263 11.591 27.2388 11.71 27.0268 11.9219C26.8148 12.1337 26.6957 12.4211 26.6957 12.7207V18.3692C26.6957 18.6688 26.8148 18.9561 27.0268 19.168C27.2388 19.3798 27.5263 19.4989 27.8261 19.4989H36.8696C37.1694 19.4989 37.4569 19.3798 37.6689 19.168C37.8809 18.9561 38 18.6688 38 18.3692V12.7049C38 12.4052 37.8809 12.1179 37.6689 11.906C37.4569 11.6942 37.1694 11.5752 36.8696 11.5752V11.5752Z" fill="white"/><path d="M22.9731 37.243C23.1851 37.0312 23.3043 36.7439 23.3043 36.4444V30.7959C23.3043 30.4962 23.1852 30.2089 22.9732 29.997C22.7612 29.7852 22.4737 29.6662 22.1739 29.6662H13.1304C12.8306 29.6662 12.5431 29.7852 12.3311 29.997C12.1191 30.2089 12 30.4962 12 30.7959V36.4274C12 36.727 12.1191 37.0144 12.3311 37.2262C12.5431 37.4381 12.8306 37.5571 13.1304 37.5571L22.1739 37.5729C22.4735 37.5732 22.761 37.4545 22.9731 37.243Z" fill="white"/><path d="M36.8695 22.8891H27.826C27.5262 22.8891 27.2387 23.0081 27.0267 23.22C26.8147 23.4318 26.6956 23.7192 26.6956 24.0188V36.4455C26.6956 36.7451 26.8147 37.0324 27.0267 37.2443C27.2387 37.4561 27.5262 37.5752 27.826 37.5752L36.8695 37.5594C37.1693 37.5594 37.4568 37.4403 37.6688 37.2285C37.8808 37.0166 37.9999 36.7293 37.9999 36.4297V24.0188C37.9999 23.7192 37.8808 23.4318 37.6688 23.22C37.4568 23.0081 37.1693 22.8891 36.8695 22.8891Z" fill="white"/></svg>