<svg class="min-w-50px min-h-50px" width="50" height="50" viewBox="0 0 50 50" fill="none" xmlns="http://www.w3.org/2000/svg"><path d="M0 16.6C0 2.9299 2.9299 0 16.6 0H33.4C47.0701 0 50 2.9299 50 16.6V33.4C50 47.0701 47.0701 50 33.4 50H16.6C2.9299 50 0 47.0701 0 33.4V16.6Z" fill="#D97706"/><path d="M35.2857 18.1326H32.1663L32.6907 14.9922C32.8463 14.0598 32.2152 13.1787 31.2817 13.0231C30.3426 12.8694 29.4646 13.4985 29.3087 14.4292L28.6911 18.1326H23.5964L24.1208 14.9922C24.2765 14.0598 23.6454 13.1787 22.7119 13.0231C21.7728 12.8694 20.8948 13.4985 20.7389 14.4292L20.1196 18.1326H16.4286C15.482 18.1326 14.7143 18.8988 14.7143 19.8435C14.7143 20.8379 15.482 21.5543 16.4286 21.5543H19.548L18.4054 28.3977H14.7143C13.7677 28.3977 13 29.1638 13 30.1085C13 31.0532 13.7677 31.7712 14.7143 31.7712H17.8338L17.3093 34.9117C17.1537 35.8441 17.7848 36.7252 18.7183 36.8808C18.8125 36.9947 18.9089 37 19 37C19.8229 37 20.5493 36.4071 20.6891 35.5709L21.3073 31.8675H26.403L25.8786 35.0079C25.7229 35.9403 26.3541 36.8214 27.2876 36.977C27.3839 36.9947 27.4804 37 27.5714 37C28.3943 37 29.1207 36.4071 29.2605 35.5709L29.8787 31.8675H33.5714C34.518 31.8675 35.2857 31.1013 35.2857 30.2048C35.2857 29.2601 34.518 28.4939 33.5714 28.4939H30.452L31.5946 21.6506H35.2857C36.2323 21.6506 37 20.885 37 19.9878C37 18.9453 36.2339 18.1326 35.2857 18.1326ZM26.9768 28.3977H21.8821L23.0232 21.5543H28.1189L26.9768 28.3977Z" fill="white"/></svg>