<svg class="min-w-50px min-h-50px" width="50" height="50" viewBox="0 0 50 50" fill="none" xmlns="http://www.w3.org/2000/svg"><path d="M0 16.6C0 2.9299 2.9299 0 16.6 0H33.4C47.0701 0 50 2.9299 50 16.6V33.4C50 47.0701 47.0701 50 33.4 50H16.6C2.9299 50 0 47.0701 0 33.4V16.6Z" fill="#DB2777"/><path d="M25.0031 17.8212C21.0303 17.8212 17.8259 21.0263 17.8259 25C17.8259 28.9737 21.0303 32.1788 25.0031 32.1788C28.9759 32.1788 32.1804 28.9737 32.1804 25C32.1804 21.0263 28.9759 17.8212 25.0031 17.8212ZM25.0031 29.6672C22.4358 29.6672 20.337 27.5741 20.337 25C20.337 22.4259 22.4296 20.3328 25.0031 20.3328C27.5767 20.3328 29.6693 22.4259 29.6693 25C29.6693 27.5741 27.5704 29.6672 25.0031 29.6672V29.6672ZM34.148 17.5275C34.148 18.4584 33.3984 19.2019 32.474 19.2019C31.5432 19.2019 30.7999 18.4522 30.7999 17.5275C30.7999 16.6028 31.5495 15.8531 32.474 15.8531C33.3984 15.8531 34.148 16.6028 34.148 17.5275ZM38.9016 19.2269C38.7954 16.9839 38.2832 14.9971 36.6404 13.3601C35.0038 11.7232 33.0174 11.2109 30.7749 11.0984C28.4637 10.9672 21.5363 10.9672 19.2251 11.0984C16.9888 11.2046 15.0025 11.7169 13.3596 13.3539C11.7168 14.9909 11.2108 16.9777 11.0984 19.2207C10.9672 21.5324 10.9672 28.4613 11.0984 30.7731C11.2046 33.0161 11.7168 35.0029 13.3596 36.6399C15.0025 38.2768 16.9826 38.7891 19.2251 38.9016C21.5363 39.0328 28.4637 39.0328 30.7749 38.9016C33.0174 38.7954 35.0038 38.2831 36.6404 36.6399C38.277 35.0029 38.7892 33.0161 38.9016 30.7731C39.0328 28.4613 39.0328 21.5387 38.9016 19.2269V19.2269ZM35.9158 33.2535C35.4286 34.4781 34.4853 35.4215 33.2548 35.9151C31.412 36.6461 27.0395 36.4774 25.0031 36.4774C22.9668 36.4774 18.588 36.6399 16.7515 35.9151C15.5272 35.4278 14.5839 34.4843 14.0905 33.2535C13.3596 31.4104 13.5283 27.0368 13.5283 25C13.5283 22.9632 13.3659 18.5834 14.0905 16.7465C14.5777 15.5219 15.5209 14.5785 16.7515 14.0849C18.5942 13.3539 22.9668 13.5226 25.0031 13.5226C27.0395 13.5226 31.4183 13.3601 33.2548 14.0849C34.4791 14.5722 35.4223 15.5157 35.9158 16.7465C36.6466 18.5896 36.478 22.9632 36.478 25C36.478 27.0368 36.6466 31.4166 35.9158 33.2535Z" fill="white"/></svg>