<svg class="min-w-50px min-h-50px" width="50" height="50" viewBox="0 0 50 50" fill="none" xmlns="http://www.w3.org/2000/svg"><path d="M0 16.6C0 2.9299 2.9299 0 16.6 0H33.4C47.0701 0 50 2.9299 50 16.6V33.4C50 47.0701 47.0701 50 33.4 50H16.6C2.9299 50 0 47.0701 0 33.4V16.6Z" fill="#65A30D"/><path d="M36.958 34.8782L35.878 19.7115C35.8455 19.2482 35.6338 18.8141 35.2853 18.4966C34.9369 18.179 34.4776 18.0016 34 18H31.9C31.8204 18 31.7441 17.9693 31.6879 17.9146C31.6316 17.8599 31.6 17.7857 31.6 17.7083V17.4167C31.6 15.7149 30.9046 14.0828 29.6669 12.8794C28.4292 11.676 26.7504 11 25 11C23.2496 11 21.5708 11.676 20.3331 12.8794C19.0954 14.0828 18.4 15.7149 18.4 17.4167V17.7083C18.4 17.7857 18.3684 17.8599 18.3121 17.9146C18.2559 17.9693 18.1796 18 18.1 18H16C15.5228 18.0009 15.0636 18.1774 14.7147 18.4941C14.3659 18.8107 14.1533 19.244 14.1196 19.7068L13.0396 34.8735C13.0132 35.2779 13 35.6812 13 36.0833C13 36.4664 13.0776 36.8456 13.2284 37.1995C13.3791 37.5534 13.6001 37.8749 13.8787 38.1457C14.1573 38.4166 14.488 38.6314 14.8519 38.778C15.2159 38.9246 15.606 39 16 39H34C34.394 39 34.7841 38.9246 35.1481 38.778C35.512 38.6314 35.8427 38.4166 36.1213 38.1457C36.3999 37.8749 36.6209 37.5534 36.7716 37.1995C36.9224 36.8456 37 36.4664 37 36.0833C37 35.6812 36.986 35.2795 36.958 34.8782ZM20.2 25C20.4373 25 20.6693 25.0684 20.8667 25.1966C21.064 25.3248 21.2178 25.507 21.3087 25.7202C21.3995 25.9334 21.4232 26.168 21.3769 26.3943C21.3306 26.6206 21.2164 26.8285 21.0485 26.9916C20.8807 27.1548 20.6669 27.2659 20.4341 27.3109C20.2013 27.3559 19.9601 27.3328 19.7408 27.2445C19.5215 27.1562 19.3341 27.0067 19.2022 26.8148C19.0704 26.623 19 26.3974 19 26.1667C19 25.8572 19.1264 25.5605 19.3515 25.3417C19.5765 25.1229 19.8817 25 20.2 25ZM20.008 30.6898C20.1061 30.6258 20.2163 30.5813 20.3322 30.5587C20.448 30.5362 20.5673 30.5361 20.6833 30.5584C20.7992 30.5807 20.9094 30.625 21.0077 30.6888C21.106 30.7526 21.1904 30.8346 21.256 30.9302C21.6674 31.5286 22.2242 32.0192 22.8771 32.3585C23.5301 32.6978 24.259 32.8753 24.9994 32.8753C25.7398 32.8753 26.4687 32.6978 27.1217 32.3585C27.7746 32.0192 28.3314 31.5286 28.7428 30.9302C28.8769 30.7401 29.0826 30.6092 29.3154 30.5657C29.5482 30.5223 29.7892 30.5699 29.9861 30.6982C30.183 30.8265 30.3198 31.0251 30.367 31.2509C30.4142 31.4767 30.3678 31.7115 30.238 31.9043C29.6622 32.7417 28.883 33.4282 27.9692 33.9029C27.0555 34.3777 26.0354 34.626 24.9994 34.626C23.9634 34.626 22.9433 34.3777 22.0296 33.9029C21.1158 33.4282 20.3366 32.7417 19.7608 31.9043C19.6946 31.8089 19.6485 31.7017 19.6251 31.5889C19.6018 31.4761 19.6015 31.36 19.6245 31.2471C19.6475 31.1342 19.6932 31.0269 19.759 30.9312C19.8248 30.8356 19.9094 30.7536 20.008 30.6898V30.6898ZM29.8 27.3333C29.5627 27.3333 29.3307 27.2649 29.1333 27.1367C28.936 27.0085 28.7822 26.8263 28.6913 26.6131C28.6005 26.4 28.5768 26.1654 28.6231 25.9391C28.6694 25.7127 28.7836 25.5049 28.9515 25.3417C29.1193 25.1785 29.3331 25.0674 29.5659 25.0224C29.7987 24.9774 30.0399 25.0005 30.2592 25.0888C30.4785 25.1771 30.6659 25.3266 30.7978 25.5185C30.9296 25.7104 31 25.9359 31 26.1667C31 26.4761 30.8736 26.7728 30.6485 26.9916C30.4235 27.2104 30.1183 27.3333 29.8 27.3333ZM20.8 17.4167C20.8 16.3337 21.2425 15.2951 22.0302 14.5293C22.8178 13.7635 23.8861 13.3333 25 13.3333C26.1139 13.3333 27.1822 13.7635 27.9698 14.5293C28.7575 15.2951 29.2 16.3337 29.2 17.4167V17.7083C29.2 17.7857 29.1684 17.8599 29.1121 17.9146C29.0559 17.9693 28.9796 18 28.9 18H21.1C21.0204 18 20.9441 17.9693 20.8879 17.9146C20.8316 17.8599 20.8 17.7857 20.8 17.7083V17.4167Z" fill="white"/></svg>