<svg width="26" height="21" viewBox="0 0 26 21" fill="none" xmlns="http://www.w3.org/2000/svg"><g clip-path="url(#clip0_2031_333)"><path d="M5.08204 14.6253C5.081 14.9241 5.1988 15.211 5.40948 15.4228C5.62019 15.6346 5.90649 15.7539 6.20525 15.7543C6.50401 15.7548 6.79066 15.6365 7.00205 15.4253L10.5911 11.8323C10.8031 11.6203 10.9216 11.3322 10.9201 11.0323V10.9953C10.931 10.6845 10.8122 10.3831 10.5921 10.1633L7.00106 6.57932C6.7146 6.30692 6.30624 6.20484 5.92531 6.31044C5.54439 6.416 5.24683 6.71375 5.14149 7.09475C5.03615 7.47574 5.13849 7.88404 5.41105 8.17033L8.24106 11.0003L5.41105 13.8303C5.20021 14.0411 5.08182 14.3271 5.08205 14.6253L5.08204 14.6253Z" fill="currentColor"/></g><defs><clipPath id="clip0_2031_333"><rect width="16" height="16" fill="white"/></clipPath></defs></svg>