<svg xmlns="http://www.w3.org/2000/svg" viewBox="0 0 60 60" width="40" height="40" class="inline-block"><g><path id="Layer" fill="#00f2ea" d="m25.2 24.8v-2q-1-0.1-2-0.1c-8.3 0-15 6.7-15 14.9 0 5.1 2.6 9.6 6.4 12.3-2.6-2.8-4-6.4-4-10.2 0-8.1 6.5-14.7 14.6-14.9z"/><path id="Layer" fill="#00f2ea" d="m25.5 46.5c3.7 0 6.7-2.9 6.8-6.6l0.1-32.5h5.9q-0.2-1-0.2-2h-8.1v32.5c-0.2 3.6-3.2 6.5-6.8 6.5-1.1 0-2.2-0.2-3.2-0.7 1.3 1.7 3.3 2.8 5.5 2.8zm23.9-28v-1.8c-2.2 0-4.3-0.7-6.2-1.9 1.6 1.9 3.8 3.2 6.2 3.7z"/><path id="Layer" fill="#ff004f" d="m43.2 14.8c-1.7-2-2.7-4.6-2.7-7.4h-2.2c0.6 3.1 2.4 5.8 4.9 7.4zm-20 16c-3.8 0-6.8 3.1-6.8 6.8 0 2.6 1.4 4.9 3.6 6.1-0.8-1.2-1.3-2.6-1.3-4 0-3.8 3.1-6.8 6.8-6.8q1.1 0 2.1 0.3v-8.3q-1-0.1-2.1-0.1-0.1 0-0.3 0v6.3q-1-0.3-2-0.3z"/><path id="Layer" fill="#ff004f" d="m49.4 18.5v6.3c-4.2 0-8.1-1.4-11.3-3.7v16.5c0 8.3-6.7 15-14.9 15-3.2 0-6.2-1-8.6-2.7 2.8 3 6.8 4.7 10.9 4.7 8.3 0 15-6.7 15-14.9v-16.5c3.3 2.4 7.2 3.6 11.3 3.6v-8.1q-1.3 0-2.4-0.2z"/><path id="Layer" fill="#000000" d="m38.1 37.6v-16.5c3.3 2.4 7.2 3.7 11.3 3.7v-6.3c-2.4-0.5-4.6-1.8-6.2-3.7-2.5-1.6-4.3-4.3-4.9-7.4h-5.9l-0.1 32.5c-0.1 3.7-3.1 6.6-6.8 6.6-2.2 0-4.2-1.1-5.5-2.8-2.2-1.2-3.6-3.5-3.6-6.1 0-3.7 3-6.8 6.8-6.8q1 0 2 0.3v-6.3c-8.1 0.2-14.6 6.8-14.6 14.9 0 3.9 1.5 7.5 4 10.2 2.5 1.7 5.5 2.7 8.6 2.7 8.2 0 14.9-6.7 14.9-15z"/></g></svg>