<svg class="min-w-50px min-h-50px" width="50" height="50" viewBox="0 0 50 50" fill="none" xmlns="http://www.w3.org/2000/svg"><path d="M0,16.6C0,2.9,2.9,0,16.6,0h16.8C47.1,0,50,2.9,50,16.6v16.8C50,47.1,47.1,50,33.4,50H16.6 C2.9,50,0,47.1,0,33.4V16.6z" fill="#000"/><path d="M27.1,23.3l8-9.3h-1.9l-6.9,8.1L20.7,14h-6.4l8.4,12.3L14.2,36h1.9l7.3-8.6l5.8,8.6h6.4L27.1,23.3L27.1,23.3z M24.5,26.3l-0.9-1.2l-6.8-9.7h2.9l5.5,7.8l0.9,1.2l7.1,10.2h-2.9L24.5,26.3L24.5,26.3z" stroke="#fff" stroke-width=".6" fill="#ffffff"/></svg>